<svg width="138" height="137" viewBox="0 0 138 137" fill="none" xmlns="http://www.w3.org/2000/svg">
<ellipse cx="69" cy="68.5" rx="69" ry="68.5" fill="#F80B6A"/>
<path d="M63.24 91.8L48.52 47.8H48.2L47.64 45.48L51.48 31.72H53.88L73.96 91.8H63.24ZM23.72 93V91H42.92V93H23.72ZM39.32 74.12V72.12H65.24V74.12H39.32ZM53.64 93V91H81.08V93H53.64ZM30.6 91.8L51.48 31.72H53.88L49 45.48L33.24 91.8H30.6Z" fill="black"/>
<path d="M87.48 93.96C83.32 93.96 79.5867 93.1067 76.28 91.4C72.9733 89.6933 70.1467 87.4 67.8 84.52C65.5067 81.5867 63.72 78.3067 62.44 74.68C61.2133 71 60.6 67.24 60.6 63.4C60.6 59.24 61.2933 55.2667 62.68 51.48C64.12 47.64 66.0933 44.2533 68.6 41.32C71.1067 38.3333 74.04 35.9867 77.4 34.28C80.8133 32.5733 84.52 31.72 88.52 31.72C91.0267 31.72 93.3467 32.12 95.48 32.92C97.6133 33.72 99.6667 34.9733 101.64 36.68L105.16 32.68H107.16V50.76H105.16C104.573 47.7733 103.64 45.0267 102.36 42.52C101.08 39.96 99.32 37.9333 97.08 36.44C94.8933 34.8933 92.04 34.12 88.52 34.12C86.28 34.12 84.2267 34.5467 82.36 35.4C80.5467 36.2533 78.9467 37.7733 77.56 39.96C76.2267 42.0933 75.1867 45.1067 74.44 49C73.7467 52.84 73.4 57.7733 73.4 63.8C73.4 69.3467 73.72 73.9333 74.36 77.56C75 81.1333 75.9067 83.9333 77.08 85.96C78.2533 87.9867 79.6933 89.4 81.4 90.2C83.16 91 85.1067 91.4 87.24 91.4C90.7067 91.4 93.4 90.5733 95.32 88.92C97.2933 87.2133 98.28 84.84 98.28 81.8V70.36H110.2V72.28C110.2 76.8133 109.133 80.7067 107 83.96C104.92 87.16 102.147 89.64 98.68 91.4C95.2667 93.1067 91.5333 93.96 87.48 93.96ZM88.44 71.56V69.56H114.84V71.56H88.44Z" fill="black"/>
</svg>
